<svg width="15" height="15" xmlns="http://www.w3.org/2000/svg">
  <rect width="15px" height="15px" fill="#ffc0cb" stroke="#bf9098" stroke-width="2" />
  <path stroke="#000"
    d="m3,7.5l0,0c0,-0.47338 0.38375,-0.85713 0.85713,-0.85713l0,0c0.22733,0 0.44534,0.0903 0.60609,0.25105c0.16074,0.16074 0.25105,0.37876 0.25105,0.60609l0,0c0,0.47338 -0.38375,0.85713 -0.85713,0.85713l0,0c-0.47338,0 -0.85713,-0.38375 -0.85713,-0.85713zm0.85713,-0.85713l0,1.71427m-0.85713,-0.85713l1.71427,0"
    stroke-width="2" fill="#000" />
  <path stroke="#000" id="svg_19"
    d="m10,7.5l0,0c0,-0.47338 0.38376,-0.85713 0.85714,-0.85713l0,0c0.22732,0 0.44534,0.0903 0.60608,0.25105c0.16075,0.16074 0.25105,0.37876 0.25105,0.60608l0,0c0,0.47338 -0.38375,0.85714 -0.85713,0.85714l0,0c-0.47338,0 -0.85714,-0.38376 -0.85714,-0.85714zm0.85714,-0.85713l0,1.71427m-0.85714,-0.85714l1.71427,0"
    stroke-width="2" fill="#000" />
</svg>