<?xml version="1.0" encoding="UTF-8"?>
<svg xmlns="http://www.w3.org/2000/svg" viewBox="100 70 650 650">
  <path id="white" fill="white" stroke="white" stroke-width="1" d="M 345.00,160.00
           C 345.00,160.00 387.00,160.00 387.00,160.00
             387.00,160.00 387.00,202.00 387.00,202.00
             387.00,202.00 345.00,202.00 345.00,202.00
             345.00,202.00 345.00,160.00 345.00,160.00 Z
           M 259.00,203.00
           C 259.00,203.00 302.00,203.00 302.00,203.00
             302.00,203.00 302.00,246.00 302.00,246.00
             302.00,246.00 345.00,246.00 345.00,246.00
             345.00,246.00 345.00,289.00 345.00,289.00
             345.00,289.00 302.00,289.00 302.00,289.00
             302.00,289.00 302.00,331.00 302.00,331.00
             302.00,331.00 258.00,331.00 258.00,331.00
             258.00,331.00 258.00,289.00 258.00,289.00
             258.00,289.00 215.00,289.00 215.00,289.00
             215.00,289.00 215.00,246.00 215.00,246.00
             215.00,246.00 259.00,246.00 259.00,246.00
             259.00,246.00 259.00,203.00 259.00,203.00 Z
           M 473.00,203.00
           C 473.00,203.00 557.00,203.00 557.00,203.00
             557.00,203.00 557.00,227.00 557.00,227.00
             557.00,227.00 559.00,254.00 559.00,254.00
             559.00,254.00 559.00,288.00 559.00,288.00
             559.00,288.00 516.00,288.00 516.00,288.00
             516.00,288.00 516.00,246.00 516.00,246.00
             516.00,246.00 473.00,246.00 473.00,246.00
             473.00,246.00 473.00,203.00 473.00,203.00 Z
           M 387.00,331.00
           C 387.00,331.00 430.00,331.00 430.00,331.00
             430.00,331.00 430.00,374.00 430.00,374.00
             430.00,374.00 474.00,374.00 474.00,374.00
             474.00,374.00 474.00,417.00 474.00,417.00
             474.00,417.00 344.00,417.00 344.00,417.00
             344.00,417.00 344.00,374.00 344.00,374.00
             344.00,374.00 387.00,374.00 387.00,374.00
             387.00,374.00 387.00,331.00 387.00,331.00 Z
           M 645.00,331.00
           C 645.00,331.00 686.00,331.00 686.00,331.00
             686.00,331.00 687.88,336.17 687.88,336.17
             687.88,336.17 687.88,375.00 687.88,375.00
             687.88,375.00 730.00,375.00 730.00,375.00
             730.00,375.00 730.00,416.00 730.00,416.00
             730.00,416.00 696.00,416.00 696.00,416.00
             696.00,416.00 679.00,417.00 679.00,417.00
             679.00,417.00 602.00,417.00 602.00,417.00
             602.00,417.00 602.00,375.00 602.00,375.00
             602.00,375.00 645.00,375.00 645.00,375.00
             645.00,375.00 645.00,331.00 645.00,331.00 Z
           M 301.00,503.00
           C 301.00,503.00 464.00,503.00 464.00,503.00
             464.00,503.00 479.00,504.00 479.00,504.00
             479.00,504.00 503.00,504.00 503.00,504.00
             503.00,504.00 520.00,503.00 520.00,503.00
             520.00,503.00 558.00,503.00 558.00,503.00
             558.00,503.00 558.00,673.00 558.00,673.00
             558.00,673.00 481.00,673.00 481.00,673.00
             481.00,673.00 466.00,674.00 466.00,674.00
             466.00,674.00 442.00,674.00 442.00,674.00
             442.00,674.00 425.00,675.00 425.00,675.00
             425.00,675.00 400.00,675.00 400.00,675.00
             400.00,675.00 383.00,674.00 383.00,674.00
             383.00,674.00 345.00,674.00 345.00,674.00
             345.00,674.00 345.00,632.00 345.00,632.00
             345.00,632.00 301.00,632.00 301.00,632.00
             301.00,632.00 301.00,503.00 301.00,503.00 Z" />
  <path id="red" stroke="#EC1A23" fill="#EC1A23" stroke-width="1" d="M 387.00,160.00
           C 387.00,160.00 472.00,160.00 472.00,160.00
             472.00,160.00 473.00,246.00 473.00,246.00
             473.00,246.00 516.00,246.00 516.00,246.00
             516.00,246.00 516.00,288.00 516.00,288.00
             516.00,288.00 559.00,288.00 559.00,288.00
             559.00,288.00 559.00,246.00 559.00,246.00
             559.00,246.00 643.00,246.00 643.00,246.00
             643.00,246.00 643.00,289.00 643.00,289.00
             643.00,289.00 686.00,289.00 686.00,289.00
             686.00,289.00 686.00,331.00 686.00,331.00
             686.00,331.00 645.00,331.00 645.00,331.00
             645.00,331.00 645.00,375.00 645.00,375.00
             645.00,375.00 602.00,375.00 602.00,375.00
             602.00,375.00 602.00,417.00 602.00,417.00
             602.00,417.00 660.00,417.00 660.00,417.00
             660.00,417.00 687.00,418.00 687.00,418.00
             687.00,418.00 646.00,418.00 646.00,418.00
             646.00,418.00 646.00,446.00 646.00,446.00
             646.00,446.00 645.00,460.00 645.00,460.00
             645.00,460.00 645.00,418.00 645.00,418.00
             645.00,418.00 494.00,418.00 494.00,418.00
             494.00,418.00 451.00,418.00 451.00,418.00
             451.00,418.00 430.00,417.00 430.00,417.00
             430.00,417.00 474.00,417.00 474.00,417.00
             474.00,417.00 474.00,374.00 474.00,374.00
             474.00,374.00 430.00,374.00 430.00,374.00
             430.00,374.00 430.00,331.00 430.00,331.00
             430.00,331.00 387.00,331.00 387.00,331.00
             387.00,331.00 387.00,374.00 387.00,374.00
             387.00,374.00 344.00,374.00 344.00,374.00
             344.00,374.00 344.00,417.00 344.00,417.00
             344.00,417.00 258.00,417.00 258.00,417.00
             258.00,417.00 258.00,374.00 258.00,374.00
             258.00,374.00 216.00,374.00 216.00,374.00
             216.00,374.00 216.00,331.00 216.00,331.00
             216.00,331.00 172.00,331.00 172.00,331.00
             172.00,331.00 172.00,289.00 172.00,289.00
             172.00,289.00 129.00,289.00 129.00,289.00
             129.00,289.00 129.00,317.00 129.00,317.00
             129.00,317.00 128.00,331.00 128.00,331.00
             128.00,331.00 128.00,288.00 128.00,288.00
             128.00,288.00 174.00,288.00 174.00,288.00
             174.00,288.00 174.00,246.00 174.00,246.00
             174.00,246.00 215.00,246.00 215.00,246.00
             215.00,246.00 215.00,289.00 215.00,289.00
             215.00,289.00 258.00,289.00 258.00,289.00
             258.00,289.00 258.00,331.00 258.00,331.00
             258.00,331.00 302.00,331.00 302.00,331.00
             302.00,331.00 302.00,289.00 302.00,289.00
             302.00,289.00 345.00,289.00 345.00,289.00
             345.00,289.00 345.00,246.00 345.00,246.00
             345.00,246.00 302.00,246.00 302.00,246.00
             302.00,246.00 302.00,203.00 302.00,203.00
             302.00,203.00 387.00,202.00 387.00,202.00
             387.00,202.00 387.00,160.00 387.00,160.00 Z
           M 688.00,334.00
           C 688.00,334.00 730.00,334.00 730.00,334.00
             730.00,334.00 730.00,375.00 730.00,375.00
             730.00,375.00 688.00,375.00 688.00,375.00
             688.00,375.00 688.00,334.00 688.00,334.00 Z" />
  <path id="gray" fill="white" stroke="white" stroke-width="1" d="M 86.00,417.00
           C 86.00,417.00 86.00,384.00 86.00,384.00
             86.00,384.00 87.82,375.74 87.82,375.74
             87.82,375.74 95.00,374.00 95.00,374.00
             95.00,374.00 129.00,374.00 129.00,374.00
             129.00,374.00 129.00,417.00 129.00,417.00
             129.00,417.00 86.00,417.00 86.00,417.00 Z
           M 129.00,418.00
           C 129.00,418.00 159.00,418.00 159.00,418.00
             159.00,418.00 170.40,419.02 170.40,419.02
             170.40,419.02 172.00,426.00 172.00,426.00
             172.00,426.00 172.00,459.00 172.00,459.00
             172.00,459.00 129.00,460.00 129.00,460.00
             129.00,460.00 129.00,418.00 129.00,418.00 Z
           M 388.00,418.00
           C 388.00,418.00 421.00,418.00 421.00,418.00
             421.00,418.00 428.83,419.57 428.83,419.57
             428.83,419.57 430.00,427.00 430.00,427.00
             430.00,427.00 430.00,460.00 430.00,460.00
             430.00,460.00 558.00,460.00 558.00,460.00
             558.00,460.00 558.00,502.00 558.00,502.00
             558.00,502.00 523.00,503.00 523.00,503.00
             523.00,503.00 514.00,502.34 514.00,502.34
             514.00,502.34 503.00,503.00 503.00,503.00
             503.00,503.00 462.00,503.00 462.00,503.00
             462.00,503.00 452.00,502.18 452.00,502.18
             452.00,502.18 441.00,503.00 441.00,503.00
             441.00,503.00 395.00,503.00 395.00,503.00
             395.00,503.00 380.00,502.00 380.00,502.00
             380.00,502.00 364.00,503.00 364.00,503.00
             364.00,503.00 301.00,503.00 301.00,503.00
             301.00,503.00 301.00,632.00 301.00,632.00
             301.00,632.00 337.00,632.00 337.00,632.00
             343.06,632.12 343.88,632.94 344.00,639.00
             344.00,639.00 344.00,675.00 344.00,675.00
             344.00,675.00 258.00,675.00 258.00,675.00
             258.00,675.00 259.00,627.00 259.00,627.00
             259.00,627.00 259.00,540.00 259.00,540.00
             259.00,540.00 259.00,488.00 259.00,488.00
             259.00,488.00 258.00,460.00 258.00,460.00
             258.00,460.00 388.00,460.00 388.00,460.00
             388.00,460.00 388.00,418.00 388.00,418.00 Z
           M 646.00,418.00
           C 646.00,418.00 687.00,418.00 687.00,418.00
             687.00,418.00 687.00,459.00 687.00,459.00
             687.00,459.00 646.00,459.00 646.00,459.00
             646.00,459.00 646.00,418.00 646.00,418.00 Z
           M 345.00,675.00
           C 345.00,675.00 471.00,675.00 471.00,675.00
             471.00,675.00 471.00,718.00 471.00,718.00
             471.00,718.00 345.00,718.00 345.00,718.00
             345.00,718.00 345.00,675.00 345.00,675.00 Z" />
  <!--<path id="black" fill="" stroke="" stroke-width="1" d="M 343.00,116.00
           C 343.00,116.00 475.00,116.00 475.00,116.00
             475.00,116.00 475.00,160.00 475.00,160.00
             475.00,160.00 560.00,160.00 560.00,160.00
             560.00,160.00 560.00,203.00 560.00,203.00
             560.00,203.00 645.00,203.00 645.00,203.00
             645.00,203.00 645.00,246.00 645.00,246.00
             645.00,246.00 687.00,246.00 687.00,246.00
             687.00,246.00 687.00,286.00 687.00,286.00
             687.00,286.00 733.00,286.00 733.00,286.00
             733.00,286.00 733.00,330.00 733.00,330.00
             733.00,330.00 777.00,330.00 777.00,330.00
             777.00,330.00 777.00,418.00 777.00,418.00
             777.00,418.00 732.00,418.00 732.00,418.00
             732.00,418.00 732.00,462.00 732.00,462.00
             732.00,462.00 689.00,462.00 689.00,462.00
             689.00,462.00 689.00,503.00 689.00,503.00
             689.00,503.00 602.00,503.00 602.00,503.00
             602.00,503.00 602.00,675.00 602.00,675.00
             602.00,675.00 561.00,675.00 561.00,675.00
             561.00,675.00 561.00,720.00 561.00,720.00
             561.00,720.00 475.00,720.00 475.00,720.00
             475.00,720.00 475.00,761.00 475.00,761.00
             475.00,761.00 344.00,761.00 344.00,761.00
             344.00,761.00 344.00,719.00 344.00,719.00
             344.00,719.00 314.00,720.00 314.00,720.00
             314.00,720.00 256.00,720.00 256.00,720.00
             256.00,720.00 256.00,692.00 256.00,692.00
             256.00,692.00 257.00,675.00 257.00,675.00
             257.00,675.00 214.00,675.00 214.00,675.00
             214.00,675.00 214.00,506.00 214.00,506.00
             214.00,506.00 126.00,506.00 126.00,506.00
             126.00,506.00 126.00,461.00 126.00,461.00
             126.00,461.00 98.00,461.00 98.00,461.00
             98.00,461.00 86.74,460.01 86.74,460.01
             86.74,460.01 85.00,452.00 85.00,452.00
             85.00,452.00 85.00,426.00 85.00,426.00
             85.00,426.00 86.60,418.60 86.60,418.60
             86.60,418.60 95.00,417.00 95.00,417.00
             95.00,417.00 119.00,417.00 119.00,417.00
             119.00,417.00 126.40,418.02 126.40,418.02
             126.40,418.02 128.00,426.00 128.00,426.00
             128.00,426.00 128.00,460.00 128.00,460.00
             128.00,460.00 258.00,460.00 258.00,460.00
             258.00,460.00 258.00,675.00 258.00,675.00
             258.00,675.00 344.00,675.00 344.00,675.00
             344.00,675.00 344.00,718.00 344.00,718.00
             344.00,718.00 471.00,718.00 471.00,718.00
             471.00,718.00 471.00,687.00 471.00,687.00
             471.00,684.05 470.45,677.09 472.29,674.87
             474.18,672.59 478.31,673.00 481.00,673.00
             481.00,673.00 558.00,673.00 558.00,673.00
             558.00,673.00 558.00,510.00 558.00,510.00
             558.00,510.00 558.00,475.00 558.00,475.00
             558.00,475.00 559.17,461.57 559.17,461.57
             559.17,461.57 567.00,460.00 567.00,460.00
             567.00,460.00 688.00,460.00 688.00,460.00
             688.00,460.00 687.00,416.00 687.00,416.00
             687.00,416.00 730.00,416.00 730.00,416.00
             730.00,416.00 730.00,334.00 730.00,334.00
             730.00,334.00 686.00,334.00 686.00,334.00
             686.00,334.00 686.00,289.00 686.00,289.00
             686.00,289.00 643.00,289.00 643.00,289.00
             643.00,289.00 643.00,246.00 643.00,246.00
             643.00,246.00 558.00,246.00 558.00,246.00
             558.00,246.00 558.00,203.00 558.00,203.00
             558.00,203.00 472.00,203.00 472.00,203.00
             472.00,203.00 472.00,160.00 472.00,160.00
             472.00,160.00 345.00,160.00 345.00,160.00
             345.00,160.00 345.00,203.00 345.00,203.00
             345.00,203.00 259.00,203.00 259.00,203.00
             259.00,203.00 259.00,246.00 259.00,246.00
             259.00,246.00 174.00,246.00 174.00,246.00
             174.00,246.00 174.00,288.00 174.00,288.00
             174.00,288.00 128.00,288.00 128.00,288.00
             128.00,288.00 128.00,331.00 128.00,331.00
             128.00,331.00 86.00,331.00 86.00,331.00
             86.00,331.00 86.00,288.00 86.00,288.00
             86.00,288.00 128.00,288.00 128.00,288.00
             128.00,288.00 128.00,245.00 128.00,245.00
             128.00,245.00 172.00,245.00 172.00,245.00
             172.00,245.00 172.00,203.00 172.00,203.00
             172.00,203.00 258.00,203.00 258.00,203.00
             258.00,203.00 258.00,160.00 258.00,160.00
             258.00,160.00 343.00,160.00 343.00,160.00
             343.00,160.00 343.00,116.00 343.00,116.00 Z
           M 43.00,332.00
           C 43.00,332.00 86.00,332.00 86.00,332.00
             86.00,332.00 86.00,396.00 86.00,396.00
             86.00,399.68 86.95,413.96 84.40,415.98
             82.81,417.23 78.99,417.00 77.00,417.00
             77.00,417.00 43.00,417.00 43.00,417.00
             43.00,417.00 43.00,332.00 43.00,332.00 Z" />-->
  <path id="darkred" fill="#EC1A23" stroke="#EC1A23" stroke-width="1" d="M 129.00,289.00
           C 129.00,289.00 172.00,289.00 172.00,289.00
             172.00,289.00 172.00,331.00 172.00,331.00
             172.00,331.00 216.00,331.00 216.00,331.00
             216.00,331.00 216.00,374.00 216.00,374.00
             216.00,374.00 258.00,374.00 258.00,374.00
             258.00,374.00 258.00,417.00 258.00,417.00
             258.00,417.00 388.00,417.00 388.00,417.00
             388.00,417.00 387.00,460.00 387.00,460.00
             387.00,460.00 231.00,460.00 231.00,460.00
             231.00,460.00 216.00,459.00 216.00,459.00
             216.00,459.00 172.00,459.00 172.00,459.00
             172.00,459.00 172.00,431.00 172.00,431.00
             172.00,428.22 172.42,421.48 170.98,419.31
             169.40,416.95 166.52,417.05 164.00,417.00
             164.00,417.00 130.00,417.00 130.00,417.00
             130.00,417.00 130.00,374.00 130.00,374.00
             130.00,374.00 86.00,374.00 86.00,374.00
             86.00,374.00 86.00,331.00 86.00,331.00
             86.00,331.00 129.00,331.00 129.00,331.00
             129.00,331.00 129.00,289.00 129.00,289.00 Z
           M 430.00,418.00
           C 430.00,418.00 645.00,418.00 645.00,418.00
             645.00,418.00 645.00,460.00 645.00,460.00
             645.00,460.00 608.00,460.00 608.00,460.00
             608.00,460.00 592.00,459.00 592.00,459.00
             592.00,459.00 566.00,459.00 566.00,459.00
             566.00,459.00 551.00,460.00 551.00,460.00
             551.00,460.00 431.00,460.00 431.00,460.00
             431.00,450.52 431.88,425.73 430.00,418.00 Z" />
</svg>